<svg version="1.1" viewBox="0.0 0.0 240.1994750656168 240.1994750656168" fill="none" stroke="none" stroke-linecap="square" stroke-miterlimit="10" xmlns:xlink="http://www.w3.org/1999/xlink" xmlns="http://www.w3.org/2000/svg"><clipPath id="p.0"><path d="m0 0l240.19948 0l0 240.19948l-240.19948 0l0 -240.19948z" clip-rule="nonzero"/></clipPath><g clip-path="url(#p.0)"><path fill="#000000" fill-opacity="0.0" d="m0 0l240.19948 0l0 240.19948l-240.19948 0z" fill-rule="evenodd"/><path fill="#edd88d" d="m0 57.199474l0 0c0 -26.509666 21.490332 -48.0 48.0 -48.0l144.40945 0l0 0c12.730392 0 24.939377 5.057128 33.941116 14.058875c9.001755 9.001747 14.058884 21.210732 14.058884 33.941124l0 0l0 0c0 26.50967 -21.490341 48.000004 -48.0 48.000004l-144.40945 0c-26.509668 0 -48.0 -21.490334 -48.0 -48.000004z" fill-rule="evenodd"/><path fill="#000000" d="m105.148155 62.071346q-0.25 6.796879 -3.375 10.843754q-3.125 4.03125 -8.34375 4.03125q-2.125 0 -3.765625 -0.921875q-1.640625 -0.921875 -2.5625 -2.625q-2.546875 3.4375 -6.84375 3.4375q-2.5 0 -4.375 -1.46875q-1.875 -1.46875 -2.75 -4.171875q-0.859375 -2.71875 -0.53125 -6.15625q0.78125 -6.500004 4.1875 -10.453129q3.421875 -3.96875 8.375 -3.96875q3.8125 0 6.578125 1.765625l1.640625 1.09375l-1.328125 15.296879q-0.4375 3.609375 2.5 3.609375q2.21875 0 3.703125 -2.8125q1.5 -2.828125 1.65625 -7.234379q0.453125 -8.703125 -3.609375 -13.4375q-4.046875 -4.734375 -11.84375 -4.734375q-4.984375 0 -8.859375 2.546875q-3.859375 2.53125 -6.109375 7.1875q-2.25 4.640625 -2.53125 10.578129q-0.421875 9.109375 3.640625 13.9375q4.0625 4.828125 12.1875 4.828125q2.1875 0 4.625 -0.515625q2.453125 -0.5 3.984375 -1.171875l0.96875 4.328125q-1.59375 1.03125 -4.28125 1.671875q-2.6875 0.640625 -5.40625 0.640625q-7.109375 0 -12.015625 -2.71875q-4.90625 -2.71875 -7.312504 -8.0625q-2.390625 -5.34375 -2.125 -12.9375q0.3125 -7.187504 3.3125038 -12.875004q3.015625 -5.6875 8.234375 -8.796875q5.21875 -3.125 11.78125 -3.125q6.5625 0 11.328125 2.734375q4.765625 2.71875 7.15625 7.828125q2.40625 5.09375 2.109375 11.828125zm-26.03125 2.9687538q-0.28125 3.390625 0.53125 5.125q0.828125 1.734375 2.640625 1.734375q1.234375 0 2.25 -1.09375q1.03125 -1.09375 1.703125 -3.125l1.046875 -11.875004q-0.78125 -0.21875 -1.609375 -0.21875q-2.921875 0 -4.5 2.28125q-1.5625 2.28125 -2.0625 7.171879zm41.943253 -9.062504l4.09375 -7.75l9.109367 0l-7.4218674 13.71875l7.7812424 14.453129l-9.156242 0l-4.421875 -8.328125l-4.359375 8.328125l-9.21875 0l7.8125 -14.453129l-7.390625 -13.71875l9.21875 0l3.953125 7.75zm19.038979 23.671879l-6.21875 0l12.9375 -41.156254l6.25 0l-12.96875 41.156254zm26.972137 -15.546875l4.6875 -15.875004l9.40625 0l-11.484375 32.89063l-0.5 1.1875q-2.4375 5.46875 -8.640625 5.46875q-1.71875 0 -3.625 -0.515625l0 -6.28125l1.15625 0q1.84375 0 2.8125 -0.53125q0.984375 -0.53125 1.453125 -1.90625l0.703125 -1.875l-9.796875 -28.437504l9.375 0l4.453125 15.875004z" fill-rule="nonzero"/><path fill="#a6e4b2" d="m0 182.39896l0 0c0 -26.509674 21.490332 -48.0 48.0 -48.0l144.40945 0l0 0c12.730392 0 24.939377 5.057129 33.941116 14.058868c9.001755 9.0017395 14.058884 21.21074 14.058884 33.94113l0 0l0 0c0 26.509659 -21.490341 48.0 -48.0 48.0l-144.40945 0c-26.509668 0 -48.0 -21.490341 -48.0 -48.0z" fill-rule="evenodd"/><path fill="#000000" d="m34.047237 190.47395q0 -0.828125 -0.203125 -1.453125q0 -2.46875 2.9375 -4.1875q1.84375 -0.9375 2.984375 -0.9375q1.53125 0.328125 2.125 1.765625q1.25 2.921875 1.65625 3.9375q0.078125 0.5 0.078125 0.34375q0 0.046875 0.125 -0.234375q7.109375 -12.53125 12.765625 -19.46875q4.4375 -5.265625 5.5625 -6.15625q3.5312538 -2.65625 9.093754 -2.921875l0.421875 2.1875q-3.796875 3.796875 -12.515629 16.015625q-8.5 12.265625 -12.203125 19.265625q-0.96875 2.1875 -2.375 2.65625q-0.765625 0.765625 -3.15625 0.515625q-1.765625 0.265625 -2.625 -0.59375q-0.734375 -0.5 -1.46875 -1.96875q-2.109375 -5.0625 -3.203125 -8.765625z" fill-rule="nonzero"/><path fill="#000000" d="m139.28032 187.27083q-0.25 6.796875 -3.375 10.84375q-3.125 4.03125 -8.34375 4.03125q-2.125 0 -3.765625 -0.921875q-1.640625 -0.921875 -2.5625 -2.625q-2.546875 3.4375 -6.84375 3.4375q-2.5 0 -4.375 -1.46875q-1.875 -1.46875 -2.75 -4.171875q-0.859375 -2.71875 -0.53125 -6.15625q0.78125 -6.5 4.1875 -10.453125q3.421875 -3.96875 8.375 -3.96875q3.8125 0 6.578125 1.765625l1.640625 1.09375l-1.328125 15.296875q-0.4375 3.609375 2.5 3.609375q2.21875 0 3.703125 -2.8125q1.5 -2.828125 1.65625 -7.234375q0.453125 -8.703125 -3.609375 -13.4375q-4.046875 -4.734375 -11.84375 -4.734375q-4.984375 0 -8.859375 2.546875q-3.859375 2.53125 -6.109375 7.1875q-2.25 4.640625 -2.53125 10.578125q-0.421875 9.109375 3.640625 13.9375q4.0625 4.828125 12.1875 4.828125q2.1875 0 4.625 -0.515625q2.453125 -0.5 3.984375 -1.171875l0.96875 4.328125q-1.59375 1.03125 -4.28125 1.671875q-2.6875 0.640625 -5.40625 0.640625q-7.109375 0 -12.015625 -2.71875q-4.90625 -2.71875 -7.3125 -8.0625q-2.390625 -5.34375 -2.125 -12.9375q0.3125 -7.1875 3.3125 -12.875q3.015625 -5.6875 8.234375 -8.796875q5.21875 -3.125 11.78125 -3.125q6.5625 0 11.328125 2.734375q4.765625 2.71875 7.15625 7.828125q2.40625 5.09375 2.109375 11.828125zm-26.03125 2.96875q-0.28125 3.390625 0.53125 5.125q0.828125 1.734375 2.640625 1.734375q1.234375 0 2.25 -1.09375q1.03125 -1.09375 1.703125 -3.125l1.046875 -11.875q-0.78125 -0.21875 -1.609375 -0.21875q-2.921875 0 -4.5 2.28125q-1.5625 2.28125 -2.0625 7.171875zm41.943253 -9.0625l4.09375 -7.75l9.109375 0l-7.421875 13.71875l7.78125 14.453125l-9.15625 0l-4.421875 -8.328125l-4.359375 8.328125l-9.21875 0l7.8125 -14.453125l-7.390625 -13.71875l9.21875 0l3.953125 7.75zm19.03897 23.671875l-6.21875 0l12.9375 -41.15625l6.25 0l-12.96875 41.15625zm26.972137 -15.546875l4.6875 -15.875l9.40625 0l-11.484375 32.890625l-0.5 1.1875q-2.4375 5.46875 -8.640625 5.46875q-1.71875 0 -3.625 -0.515625l0 -6.28125l1.15625 0q1.84375 0 2.8125 -0.53125q0.984375 -0.53125 1.453125 -1.90625l0.703125 -1.875l-9.796875 -28.4375l9.375 0l4.453125 15.875z" fill-rule="nonzero"/></g></svg>